Coordinates
version=1
nRows=12
nColumns=46
inDegrees=yes

Units are S.I. units (second, meters, Newtons, ...)
Angles are in degrees.

endheader
time	pelvis_tilt	pelvis_list	pelvis_rotation	pelvis_tx	pelvis_ty	pelvis_tz	bb_angle	bb_tx	bb_ty	bb_tz	hip_flexion_r	hip_adduction_r	hip_rotation_r	knee_angle_r	knee_angle_r_beta	ankle_angle_r	subtalar_angle_r	mtp_angle_r	crank_angle_r	hip_flexion_l	hip_adduction_l	hip_rotation_l	knee_angle_l	knee_angle_l_beta	ankle_angle_l	subtalar_angle_l	mtp_angle_l	crank_angle_l	lumbar_extension	lumbar_bending	lumbar_rotation	arm_flex_r	arm_add_r	arm_rot_r	elbow_flex_r	pro_sup_r	wrist_flex_r	wrist_dev_r	arm_flex_l	arm_add_l	arm_rot_l	elbow_flex_l	pro_sup_l	wrist_flex_l	wrist_dev_l
      2.50000000	    -15.37267757	     -2.64071445	      0.13013819	      0.10499776	      1.10807489	     -0.26147454	      0.00000000	      0.50000000	      0.00000000	      0.25000000	     87.82018760	     -0.62029585	      2.43981323	    103.57158775	      1.80766522	     19.57785398	    -13.37039941	      0.00000000	      0.00000000	     44.61403988	     -3.75615363	      4.72903014	     44.98936751	      0.78521259	    -19.81670974	    -16.21441201	      0.00000000	      0.00000000	    -64.48406720	      2.41159685	      0.90770232	     89.29866795	    -10.44966480	     27.94855253	     53.27573825	     42.62423966	      0.00000000	      0.00000000	     88.12210336	    -17.47606091	     32.13961942	     55.74917861	     40.66102499	      0.00000000	      0.00000000
      2.50500000	    -15.65082513	     -2.92347391	      0.18389691	      0.10451567	      1.10726357	     -0.26198996	      0.00000000	      0.50000000	      0.00000000	      0.25000000	     87.42374789	     -0.51111241	      2.12704074	    101.93268754	      1.77906101	     20.36637853	    -13.53386693	      0.00000000	      0.00000000	     45.49397522	     -3.67513047	      5.32435042	     46.88223188	      0.81824931	    -19.32754393	    -17.11541119	      0.00000000	      0.00000000	    -64.36334389	      2.91151087	      1.21134333	     89.31596452	    -10.46720972	     27.94417585	     54.06983845	     42.60690985	      0.00000000	      0.00000000	     88.04594102	    -17.76942362	     32.06629061	     56.02949161	     40.72410373	      0.00000000	      0.00000000
      2.51000000	    -15.63735967	     -2.74108047	      0.17571414	      0.10424712	      1.10685133	     -0.26239215	      0.00000000	      0.50000000	      0.00000000	      0.25000000	     86.75346941	     -0.41408151	      2.30592078	    100.32695112	      1.75103563	     21.02536525	    -13.87828359	      0.00000000	      0.00000000	     45.86750865	     -3.24145798	      5.57440198	     48.55962163	      0.84752528	    -18.75448756	    -17.90518633	      0.00000000	      0.00000000	    -64.46028410	      2.89633733	      1.01533821	     89.33008188	    -10.52332894	     27.92397290	     54.29596621	     42.60481449	      0.00000000	      0.00000000	     88.07601340	    -17.82579079	     32.01794946	     56.09563371	     40.73654470	      0.00000000	      0.00000000
      2.51500000	    -15.83414945	     -3.12162566	      0.20064306	      0.10381752	      1.10583906	     -0.26294356	      0.00000000	      0.50000000	      0.00000000	      0.25000000	     86.21461739	     -0.23787056	      1.85763748	     98.53994743	      1.71984653	     21.50078943	    -14.41587600	      0.00000000	      0.00000000	     46.72560485	     -3.28778378	      6.04955075	     50.60447085	      0.88321463	    -17.96945221	    -18.92664342	      0.00000000	      0.00000000	    -64.42964213	      3.46852948	      1.47574941	     89.34677987	    -10.53511282	     27.98975096	     55.11908010	     42.59510868	      0.00000000	      0.00000000	     87.95823738	    -18.18304262	     31.79605346	     56.46248494	     40.80573577	      0.00000000	      0.00000000
      2.52000000	    -15.80230052	     -2.96689809	      0.22771022	      0.10358604	      1.10505576	     -0.26342148	      0.00000000	      0.50000000	      0.00000000	      0.25000000	     85.52953057	     -0.18658092	      1.98309333	     96.88476295	      1.69095811	     21.95359856	    -14.82202923	      0.00000000	      0.00000000	     47.17451272	     -2.89397641	      6.14268490	     52.46322140	      0.91565595	    -17.13335706	    -19.83574881	      0.00000000	      0.00000000	    -64.54344802	      3.53269241	      1.31741258	     89.36698358	    -10.58589453	     27.98821220	     55.40118434	     42.59081924	      0.00000000	      0.00000000	     87.98274920	    -18.25291008	     31.71325846	     56.59553269	     40.83024174	      0.00000000	      0.00000000
      2.52500000	    -15.83926671	     -3.05630162	      0.23524934	      0.10339629	      1.10416305	     -0.26391101	      0.00000000	      0.50000000	      0.00000000	      0.25000000	     84.84699120	     -0.06399991	      1.85900089	     95.12191562	      1.66019062	     22.10524698	    -15.24057048	      0.00000000	      0.00000000	     47.77858251	     -2.75409975	      6.29696960	     54.42656849	      0.94992282	    -16.23431325	    -20.79213874	      0.00000000	      0.00000000	    -64.61439210	      3.79684389	      1.46251767	     89.37658178	    -10.55982910	     28.03671755	     55.85326345	     42.59856630	      0.00000000	      0.00000000	     87.94137269	    -18.47091056	     31.54598635	     56.82284395	     40.86864289	      0.00000000	      0.00000000
      2.53000000	    -16.02453759	     -3.38902765	      0.23605925	      0.10313783	      1.10295858	     -0.26418279	      0.00000000	      0.50000000	      0.00000000	      0.25000000	     84.31414411	      0.18792522	      1.50668736	     93.27349251	      1.62792955	     21.74066145	    -16.23704200	      0.00000000	      0.00000000	     48.65244138	     -2.88714001	      6.54432317	     56.50014192	      0.98611350	    -15.11935621	    -21.04496925	      0.00000000	      0.00000000	    -64.60257663	      4.15887536	      1.80989673	     89.37295690	    -10.81679213	     28.21051016	     56.93694641	     42.48652115	      0.00000000	      0.00000000	     87.61603289	    -18.77916242	     31.12969053	     57.86874717	     41.08185667	      0.00000000	      0.00000000
      2.53500000	    -15.91724987	     -3.21944116	      0.27895144	      0.10304463	      1.10213456	     -0.26479231	      0.00000000	      0.50000000	      0.00000000	      0.25000000	     83.59060528	      0.14177171	      1.65782706	     91.63752359	      1.59937650	     21.70291723	    -16.34285677	      0.00000000	      0.00000000	     49.06854027	     -2.52876284	      6.47478369	     58.41457335	      1.01952664	    -14.23667789	    -21.88855660	      0.00000000	      0.00000000	    -64.76405686	      4.20359243	      1.63959197	     89.39110691	    -10.79394845	     28.23761185	     57.12679879	     42.47135769	      0.00000000	      0.00000000	     87.64218921	    -18.83283734	     31.04750964	     57.96645020	     41.10256847	      0.00000000	      0.00000000
      2.54000000	    -15.86084168	     -3.24957203	      0.31552182	      0.10288503	      1.10121704	     -0.26535253	      0.00000000	      0.50000000	      0.00000000	      0.25000000	     82.86116737	      0.17866125	      1.68368534	     89.93706312	      1.56969787	     21.40873229	    -16.51240416	      0.00000000	      0.00000000	     49.62706567	     -2.39862004	      6.47340002	     60.40728569	      1.05430603	    -13.17333273	    -22.51731566	      0.00000000	      0.00000000	    -64.87685762	      4.41976423	      1.67103834	     89.41183895	    -10.72141609	     28.27539587	     57.43252629	     42.46027971	      0.00000000	      0.00000000	     87.63047253	    -18.98865666	     30.90427542	     58.16143240	     41.13892186	      0.00000000	      0.00000000
      2.54500000	    -16.03806435	     -3.56006408	      0.28279855	      0.10261943	      1.09991479	     -0.26565613	      0.00000000	      0.50000000	      0.00000000	      0.25000000	     82.32875738	      0.40345281	      1.45481224	     88.11493371	      1.53789571	     20.61820582	    -17.25989155	      0.00000000	      0.00000000	     50.57722228	     -2.62384061	      6.61757511	     62.56626123	      1.09198726	    -11.67172930	    -22.07819206	      0.00000000	      0.00000000	    -64.84910854	      4.72897327	      1.95811257	     89.42194615	    -10.75971968	     28.41699815	     58.20638549	     42.28324312	      0.00000000	      0.00000000	     87.25775661	    -19.37716731	     30.45852327	     59.22902309	     41.36755890	      0.00000000	      0.00000000
      2.55000000	    -15.92655813	     -3.35145886	      0.34140161	      0.10244612	      1.09910011	     -0.26640419	      0.00000000	      0.50000000	      0.00000000	      0.25000000	     81.56115594	      0.27950728	      1.74799252	     86.49974768	      1.50970540	     20.17227835	    -17.00295724	      0.00000000	      0.00000000	     51.08143990	     -2.29699863	      6.46788062	     64.50178337	      1.12576849	    -10.82756239	    -22.73653675	      0.00000000	      0.00000000	    -64.98584195	      4.73110923	      1.70387264	     89.44549572	    -10.72812577	     28.42583462	     58.35718263	     42.26456581	      0.00000000	      0.00000000	     87.26664949	    -19.38942859	     30.40045161	     59.33302818	     41.39159876	      0.00000000	      0.00000000
      2.55500000	    -15.90877154	     -3.38821221	      0.35113758	      0.10225106	      1.09812067	     -0.26708695	      0.00000000	      0.50000000	      0.00000000	      0.25000000	     80.80552588	      0.27342716	      1.79055454	     84.76929580	      1.47950332	     19.53040340	    -16.87977919	      0.00000000	      0.00000000	     51.79745040	     -2.27033772	      6.38849144	     66.58344962	      1.16210042	     -9.65814251	    -23.05496570	      0.00000000	      0.00000000	    -65.08784747	      4.93495997	      1.74092032	     89.46110470	    -10.59884205	     28.46694364	     58.63850852	     42.23983402	      0.00000000	      0.00000000	     87.26993492	    -19.58453522	     30.22248411	     59.57723723	     41.43723481	      0.00000000	      0.00000000
